<?xml version="1.0" encoding="iso-8859-1"?>
<!-- Uploaded to: SVG Repo, www.svgrepo.com, Generator: SVG Repo Mixer Tools -->
<svg height="800px" width="800px" version="1.1" id="Layer_1" xmlns="http://www.w3.org/2000/svg" xmlns:xlink="http://www.w3.org/1999/xlink" 
	 viewBox="0 0 512 512" xml:space="preserve">
<g transform="translate(1 1)">
	<path style="fill:#FDCC00;" d="M297.667,468.333V408.6h-85.333v59.733c0,18.773-49.493,34.133-68.267,34.133h221.867
		C347.16,502.467,297.667,487.107,297.667,468.333"/>
	<path style="fill:#FFA800;" d="M92.867,41.667v273.067h102.4h119.467h187.733V41.667c0-18.773-15.36-34.133-34.133-34.133H127
		C108.227,7.533,92.867,22.893,92.867,41.667"/>
	<path style="fill:#FFFFFF;" d="M7.533,41.667v273.067h102.4H229.4h187.733V41.667c0-18.773-15.36-34.133-34.133-34.133H41.667
		C22.893,7.533,7.533,22.893,7.533,41.667"/>
	<path style="fill:#FFE100;" d="M33.133,41.667v273.067h136.533h119.467h187.733V41.667c0-18.773-15.36-34.133-34.133-34.133H67.267
		C48.493,7.533,33.133,22.893,33.133,41.667"/>
	<path style="fill:#FFA800;" d="M468.333,408.6H127c-18.773,0-34.133-15.36-34.133-34.133v-59.733h409.6v59.733
		C502.467,393.24,487.107,408.6,468.333,408.6"/>
	<path style="fill:#FFFFFF;" d="M383,408.6H41.667c-18.773,0-34.133-15.36-34.133-34.133v-59.733h409.6v59.733
		C417.133,393.24,401.773,408.6,383,408.6"/>
	<path style="fill:#FDCC00;" d="M442.733,408.6H67.267c-18.773,0-34.133-15.36-34.133-34.133v-59.733h443.733v59.733
		C476.867,393.24,461.507,408.6,442.733,408.6"/>
	<path style="fill:#FFE100;" d="M276.333,361.667c0-11.947-9.387-21.333-21.333-21.333s-21.333,9.387-21.333,21.333
		S243.053,383,255,383S276.333,373.613,276.333,361.667"/>
	<polygon style="fill:#00AD55;" points="255,41.667 314.733,75.8 314.733,144.067 255,178.2 195.267,144.067 195.267,75.8 	"/>
	<polygon style="fill:#00DA6C;" points="255,41.667 289.133,67.267 289.133,152.6 255,178.2 195.267,144.067 195.267,75.8 	"/>
	<polygon style="fill:#00AD55;" points="314.733,144.067 374.467,178.2 374.467,246.467 314.733,280.6 255,246.467 255,178.2 	"/>
	<polygon style="fill:#00DA6C;" points="314.733,144.067 348.867,169.667 348.867,255 314.733,280.6 255,246.467 255,178.2 	"/>
	<polygon style="fill:#00AD55;" points="195.267,144.067 255,178.2 255,246.467 195.267,280.6 135.533,246.467 135.533,178.2 	"/>
	<polygon style="fill:#00DA6C;" points="195.267,144.067 229.4,161.133 229.4,263.533 195.267,280.6 135.533,246.467 135.533,178.2 
			"/>
	<path d="M135.533,50.2H41.667c-5.12,0-8.533-3.413-8.533-8.533s3.413-8.533,8.533-8.533h93.867c5.12,0,8.533,3.413,8.533,8.533
		S140.653,50.2,135.533,50.2z"/>
	<path d="M109.933,84.333H41.667c-5.12,0-8.533-3.413-8.533-8.533s3.413-8.533,8.533-8.533h68.267c5.12,0,8.533,3.413,8.533,8.533
		C118.467,80.92,115.053,84.333,109.933,84.333z"/>
	<path d="M502.467,323.267H7.533c-5.12,0-8.533-3.413-8.533-8.533V41.667C-1,17.773,17.773-1,41.667-1h426.667
		C492.227-1,511,17.773,511,41.667v273.067C511,319.853,507.587,323.267,502.467,323.267z M16.067,306.2h477.867V41.667
		c0-14.507-11.093-25.6-25.6-25.6H41.667c-14.507,0-25.6,11.093-25.6,25.6V306.2z"/>
	<path d="M255,186.733c-1.707,0-2.56,0-4.267-0.853L191,151.747c-2.56-1.707-4.267-4.267-4.267-7.68V75.8
		c0-3.413,1.707-5.973,4.267-7.68l59.733-34.133c2.56-1.707,5.973-1.707,8.533,0L319,68.12c2.56,1.707,4.267,4.267,4.267,7.68
		v68.267c0,3.413-1.707,5.973-4.267,7.68l-59.733,34.133C257.56,186.733,256.707,186.733,255,186.733z M203.8,138.947L255,167.96
		l51.2-29.013V80.92L255,51.907L203.8,80.92V138.947z"/>
	<path d="M229.4,135.533c-5.12,0-8.533-3.413-8.533-8.533V95.427c0-3.413,1.707-6.827,5.12-7.68l25.6-11.093
		c4.267-1.707,9.387,0,11.093,4.267c1.707,4.267,0,9.387-4.267,11.093l-20.48,9.387V127
		C237.933,132.12,234.52,135.533,229.4,135.533z"/>
	<path d="M195.267,289.133c-1.707,0-2.56,0-4.267-0.853l-59.733-34.133c-2.56-1.707-4.267-4.267-4.267-7.68V178.2
		c0-3.413,1.707-5.973,4.267-7.68L191,136.387c2.56-1.707,5.973-1.707,8.533,0l59.733,34.133c2.56,1.707,4.267,4.267,4.267,7.68
		v68.267c0,3.413-1.707,5.973-4.267,7.68l-59.733,34.133C197.827,289.133,196.973,289.133,195.267,289.133z M144.067,241.347
		l51.2,29.013l51.2-29.013V183.32l-51.2-29.013l-51.2,29.013V241.347z"/>
	<path d="M169.667,237.933c-5.12,0-8.533-3.413-8.533-8.533v-31.573c0-3.413,1.707-6.827,5.12-7.68l25.6-11.093
		c4.267-1.707,9.387,0,11.093,4.267c1.707,4.267,0,9.387-4.267,11.093L178.2,203.8v25.6
		C178.2,234.52,174.787,237.933,169.667,237.933z"/>
	<path d="M314.733,289.133c-1.707,0-2.56,0-4.267-0.853l-59.733-34.133c-2.56-1.707-4.267-4.267-4.267-7.68V178.2
		c0-3.413,1.707-5.973,4.267-7.68l59.733-34.133c2.56-1.707,5.973-1.707,8.533,0l59.733,34.133c2.56,1.707,4.267,4.267,4.267,7.68
		v68.267c0,3.413-1.707,5.973-4.267,7.68L319,288.28C317.293,289.133,316.44,289.133,314.733,289.133z M263.533,241.347l51.2,29.013
		l51.2-29.013V183.32l-51.2-29.013l-51.2,29.013V241.347z"/>
	<path d="M289.133,237.933c-5.12,0-8.533-3.413-8.533-8.533v-31.573c0-3.413,1.707-6.827,5.12-7.68l25.6-11.093
		c4.267-1.707,9.387,0,11.093,4.267c1.707,4.267,0,9.387-4.267,11.093l-20.48,9.387v25.6
		C297.667,234.52,294.253,237.933,289.133,237.933z"/>
	<path d="M468.333,417.133H41.667C17.773,417.133-1,398.36-1,374.467v-59.733c0-5.12,3.413-8.533,8.533-8.533h494.933
		c5.12,0,8.533,3.413,8.533,8.533v59.733C511,398.36,492.227,417.133,468.333,417.133z M16.067,323.267v51.2
		c0,14.507,11.093,25.6,25.6,25.6h426.667c14.507,0,25.6-11.093,25.6-25.6v-51.2H16.067z"/>
	<path d="M255,391.533c-16.213,0-29.867-13.653-29.867-29.867S238.787,331.8,255,331.8s29.867,13.653,29.867,29.867
		S271.213,391.533,255,391.533z M255,348.867c-6.827,0-12.8,5.973-12.8,12.8s5.973,12.8,12.8,12.8c6.827,0,12.8-5.973,12.8-12.8
		S261.827,348.867,255,348.867z"/>
	<path d="M365.933,511H144.067c-5.12,0-8.533-3.413-8.533-8.533c0-5.12,3.413-8.533,8.533-8.533c23.04,0,59.733-17.067,59.733-25.6
		V408.6c0-5.12,3.413-8.533,8.533-8.533h85.333c5.12,0,8.533,3.413,8.533,8.533v59.733c0,8.533,36.693,25.6,59.733,25.6
		c5.12,0,8.533,3.413,8.533,8.533C374.467,507.587,371.053,511,365.933,511z M201.24,493.933h106.667
		c-10.24-6.827-18.773-15.36-18.773-25.6v-51.2h-68.267v51.2C220.867,478.573,212.333,487.107,201.24,493.933z"/>
</g>
</svg>